<?xml version="1.0" standalone="no"?>
<!DOCTYPE svg PUBLIC "-//W3C//DTD SVG 20010904//EN"
 "http://www.w3.org/TR/2001/REC-SVG-20010904/DTD/svg10.dtd">
<svg version="1.0" xmlns="http://www.w3.org/2000/svg"
 width="512.000000pt" height="512.000000pt" viewBox="0 0 512.000000 512.000000"
 preserveAspectRatio="xMidYMid meet">
<metadata>
Created by potrace 1.14, written by Peter Selinger 2001-2017
</metadata>
<g transform="translate(0.000000,512.000000) scale(0.100000,-0.100000)"
fill="#000000" stroke="none">
<path d="M0 2560 l0 -2560 2560 0 2560 0 0 2560 0 2560 -2560 0 -2560 0 0
-2560z m1980 1635 c102 -53 60 -215 -55 -215 -38 0 -83 26 -100 60 -53 103 52
208 155 155z m250 0 c102 -53 60 -215 -55 -215 -38 0 -83 26 -100 60 -53 103
52 208 155 155z m250 0 c102 -53 60 -215 -55 -215 -38 0 -83 26 -100 60 -53
103 52 208 155 155z m250 0 c34 -17 60 -62 60 -100 0 -38 -26 -83 -60 -100
-102 -53 -208 53 -155 155 28 55 98 75 155 45z m250 0 c34 -17 60 -62 60 -100
0 -38 -26 -83 -60 -100 -102 -53 -208 53 -155 155 28 55 98 75 155 45z m250 0
c34 -17 60 -62 60 -100 0 -38 -26 -83 -60 -100 -102 -53 -208 53 -155 155 28
55 98 75 155 45z m-1500 -250 c102 -53 60 -215 -55 -215 -38 0 -83 26 -100 60
-53 103 52 208 155 155z m250 0 c102 -53 60 -215 -55 -215 -38 0 -83 26 -100
60 -53 103 52 208 155 155z m250 0 c102 -53 60 -215 -55 -215 -38 0 -83 26
-100 60 -53 103 52 208 155 155z m250 0 c102 -53 60 -215 -55 -215 -38 0 -83
26 -100 60 -53 103 52 208 155 155z m250 0 c34 -17 60 -62 60 -100 0 -38 -26
-83 -60 -100 -102 -53 -208 53 -155 155 28 55 98 75 155 45z m250 0 c34 -17
60 -62 60 -100 0 -38 -26 -83 -60 -100 -102 -53 -208 53 -155 155 28 55 98 75
155 45z m250 0 c34 -17 60 -62 60 -100 0 -38 -26 -83 -60 -100 -102 -53 -208
53 -155 155 28 55 98 75 155 45z m250 0 c34 -17 60 -62 60 -100 0 -38 -26 -83
-60 -100 -102 -53 -208 53 -155 155 28 55 98 75 155 45z m-2000 -250 c102 -53
60 -215 -55 -215 -38 0 -83 26 -100 60 -53 103 52 208 155 155z m250 0 c102
-53 60 -215 -55 -215 -38 0 -83 26 -100 60 -53 103 52 208 155 155z m250 0
c102 -53 60 -215 -55 -215 -38 0 -83 26 -100 60 -53 103 52 208 155 155z m250
0 c102 -53 60 -215 -55 -215 -38 0 -83 26 -100 60 -53 103 52 208 155 155z
m250 0 c102 -53 60 -215 -55 -215 -38 0 -83 26 -100 60 -53 103 52 208 155
155z m250 0 c34 -17 60 -62 60 -100 0 -38 -26 -83 -60 -100 -102 -53 -208 53
-155 155 28 55 98 75 155 45z m250 0 c34 -17 60 -62 60 -100 0 -38 -26 -83
-60 -100 -102 -53 -208 53 -155 155 28 55 98 75 155 45z m250 0 c34 -17 60
-62 60 -100 0 -38 -26 -83 -60 -100 -102 -53 -208 53 -155 155 28 55 98 75
155 45z m250 0 c34 -17 60 -62 60 -100 0 -38 -26 -83 -60 -100 -102 -53 -208
53 -155 155 28 55 98 75 155 45z m250 0 c34 -17 60 -62 60 -100 0 -38 -26 -83
-60 -100 -102 -53 -208 53 -155 155 28 55 98 75 155 45z m-2500 -250 c102 -53
60 -215 -55 -215 -38 0 -83 26 -100 60 -53 103 52 208 155 155z m250 0 c102
-53 60 -215 -55 -215 -38 0 -83 26 -100 60 -53 103 52 208 155 155z m250 0
c102 -53 60 -215 -55 -215 -38 0 -83 26 -100 60 -53 103 52 208 155 155z m250
0 c102 -53 60 -215 -55 -215 -38 0 -83 26 -100 60 -53 103 52 208 155 155z
m1250 0 c34 -17 60 -62 60 -100 0 -38 -26 -83 -60 -100 -102 -53 -208 53 -155
155 28 55 98 75 155 45z m250 0 c34 -17 60 -62 60 -100 0 -38 -26 -83 -60
-100 -102 -53 -208 53 -155 155 28 55 98 75 155 45z m250 0 c34 -17 60 -62 60
-100 0 -38 -26 -83 -60 -100 -102 -53 -208 53 -155 155 28 55 98 75 155 45z
m250 0 c34 -17 60 -62 60 -100 0 -38 -26 -83 -60 -100 -102 -53 -208 53 -155
155 28 55 98 75 155 45z m-2750 -250 c102 -53 60 -215 -55 -215 -38 0 -83 26
-100 60 -53 103 52 208 155 155z m250 0 c102 -53 60 -215 -55 -215 -38 0 -83
26 -100 60 -53 103 52 208 155 155z m250 0 c102 -53 60 -215 -55 -215 -38 0
-83 26 -100 60 -53 103 52 208 155 155z m1750 0 c34 -17 60 -62 60 -100 0 -38
-26 -83 -60 -100 -102 -53 -208 53 -155 155 28 55 98 75 155 45z m250 0 c34
-17 60 -62 60 -100 0 -38 -26 -83 -60 -100 -102 -53 -208 53 -155 155 28 55
98 75 155 45z m250 0 c34 -17 60 -62 60 -100 0 -38 -26 -83 -60 -100 -102 -53
-208 53 -155 155 28 55 98 75 155 45z m-3250 -250 c102 -53 60 -215 -55 -215
-38 0 -83 26 -100 60 -53 103 52 208 155 155z m250 0 c102 -53 60 -215 -55
-215 -38 0 -83 26 -100 60 -53 103 52 208 155 155z m250 0 c102 -53 60 -215
-55 -215 -38 0 -83 26 -100 60 -53 103 52 208 155 155z m250 0 c102 -53 60
-215 -55 -215 -38 0 -83 26 -100 60 -53 103 52 208 155 155z m250 0 c102 -53
60 -215 -55 -215 -38 0 -83 26 -100 60 -53 103 52 208 155 155z m250 0 c102
-53 60 -215 -55 -215 -38 0 -83 26 -100 60 -53 103 52 208 155 155z m250 0
c102 -53 60 -215 -55 -215 -38 0 -83 26 -100 60 -53 103 52 208 155 155z m250
0 c102 -53 60 -215 -55 -215 -38 0 -83 26 -100 60 -53 103 52 208 155 155z
m250 0 c34 -17 60 -62 60 -100 0 -38 -26 -83 -60 -100 -102 -53 -208 53 -155
155 28 55 98 75 155 45z m250 0 c34 -17 60 -62 60 -100 0 -38 -26 -83 -60
-100 -102 -53 -208 53 -155 155 28 55 98 75 155 45z m250 0 c34 -17 60 -62 60
-100 0 -38 -26 -83 -60 -100 -102 -53 -208 53 -155 155 28 55 98 75 155 45z
m250 0 c34 -17 60 -62 60 -100 0 -38 -26 -83 -60 -100 -102 -53 -208 53 -155
155 28 55 98 75 155 45z m250 0 c34 -17 60 -62 60 -100 0 -38 -26 -83 -60
-100 -102 -53 -208 53 -155 155 28 55 98 75 155 45z m250 0 c34 -17 60 -62 60
-100 0 -38 -26 -83 -60 -100 -102 -53 -208 53 -155 155 28 55 98 75 155 45z
m250 0 c34 -17 60 -62 60 -100 0 -38 -26 -83 -60 -100 -102 -53 -208 53 -155
155 28 55 98 75 155 45z m250 0 c34 -17 60 -62 60 -100 0 -38 -26 -83 -60
-100 -102 -53 -208 53 -155 155 28 55 98 75 155 45z m-3750 -250 c102 -53 60
-215 -55 -215 -38 0 -83 26 -100 60 -53 103 52 208 155 155z m250 0 c102 -53
60 -215 -55 -215 -38 0 -83 26 -100 60 -53 103 52 208 155 155z m250 0 c102
-53 60 -215 -55 -215 -38 0 -83 26 -100 60 -53 103 52 208 155 155z m250 0
c102 -53 60 -215 -55 -215 -38 0 -83 26 -100 60 -53 103 52 208 155 155z m250
0 c102 -53 60 -215 -55 -215 -38 0 -83 26 -100 60 -53 103 52 208 155 155z
m250 0 c102 -53 60 -215 -55 -215 -38 0 -83 26 -100 60 -53 103 52 208 155
155z m250 0 c102 -53 60 -215 -55 -215 -38 0 -83 26 -100 60 -53 103 52 208
155 155z m250 0 c102 -53 60 -215 -55 -215 -38 0 -83 26 -100 60 -53 103 52
208 155 155z m250 0 c102 -53 60 -215 -55 -215 -38 0 -83 26 -100 60 -53 103
52 208 155 155z m250 0 c102 -53 60 -215 -55 -215 -38 0 -83 26 -100 60 -53
103 52 208 155 155z m250 0 c102 -53 60 -215 -55 -215 -38 0 -83 26 -100 60
-53 103 52 208 155 155z m250 0 c102 -53 60 -215 -55 -215 -38 0 -83 26 -100
60 -53 103 52 208 155 155z m250 0 c102 -53 60 -215 -55 -215 -38 0 -83 26
-100 60 -53 103 52 208 155 155z m250 0 c102 -53 60 -215 -55 -215 -38 0 -83
26 -100 60 -53 103 52 208 155 155z m250 0 c102 -53 60 -215 -55 -215 -38 0
-83 26 -100 60 -53 103 52 208 155 155z m250 0 c102 -53 60 -215 -55 -215 -38
0 -83 26 -100 60 -53 103 52 208 155 155z m-3750 -250 c78 -40 78 -160 0 -200
-102 -53 -208 53 -155 155 28 55 98 75 155 45z m250 0 c78 -40 78 -160 0 -200
-102 -53 -208 53 -155 155 28 55 98 75 155 45z m250 0 c102 -53 60 -215 -55
-215 -38 0 -83 26 -100 60 -53 103 52 208 155 155z m250 0 c102 -53 60 -215
-55 -215 -38 0 -83 26 -100 60 -53 103 52 208 155 155z m250 0 c102 -53 60
-215 -55 -215 -38 0 -83 26 -100 60 -53 103 52 208 155 155z m250 0 c102 -53
60 -215 -55 -215 -38 0 -83 26 -100 60 -53 103 52 208 155 155z m250 0 c102
-53 60 -215 -55 -215 -38 0 -83 26 -100 60 -53 103 52 208 155 155z m250 0
c102 -53 60 -215 -55 -215 -38 0 -83 26 -100 60 -53 103 52 208 155 155z m250
0 c102 -53 60 -215 -55 -215 -38 0 -83 26 -100 60 -53 103 52 208 155 155z
m250 0 c102 -53 60 -215 -55 -215 -38 0 -83 26 -100 60 -53 103 52 208 155
155z m250 0 c102 -53 60 -215 -55 -215 -38 0 -83 26 -100 60 -53 103 52 208
155 155z m250 0 c102 -53 60 -215 -55 -215 -38 0 -83 26 -100 60 -53 103 52
208 155 155z m250 0 c102 -53 60 -215 -55 -215 -38 0 -83 26 -100 60 -53 103
52 208 155 155z m250 0 c102 -53 60 -215 -55 -215 -38 0 -83 26 -100 60 -53
103 52 208 155 155z m250 0 c102 -53 60 -215 -55 -215 -38 0 -83 26 -100 60
-53 103 52 208 155 155z m250 0 c102 -53 60 -215 -55 -215 -38 0 -83 26 -100
60 -53 103 52 208 155 155z m-3250 -260 c102 -53 60 -215 -55 -215 -38 0 -83
26 -100 60 -53 103 52 208 155 155z m250 0 c102 -53 60 -215 -55 -215 -38 0
-83 26 -100 60 -53 103 52 208 155 155z m250 0 c102 -53 60 -215 -55 -215 -38
0 -83 26 -100 60 -53 103 52 208 155 155z m1750 0 c102 -53 60 -215 -55 -215
-38 0 -83 26 -100 60 -53 103 52 208 155 155z m250 0 c102 -53 60 -215 -55
-215 -38 0 -83 26 -100 60 -53 103 52 208 155 155z m250 0 c102 -53 60 -215
-55 -215 -38 0 -83 26 -100 60 -53 103 52 208 155 155z m-2750 -250 c102 -53
60 -215 -55 -215 -38 0 -83 26 -100 60 -53 103 52 208 155 155z m250 0 c102
-53 60 -215 -55 -215 -38 0 -83 26 -100 60 -53 103 52 208 155 155z m250 0
c102 -53 60 -215 -55 -215 -38 0 -83 26 -100 60 -53 103 52 208 155 155z m250
0 c102 -53 60 -215 -55 -215 -38 0 -83 26 -100 60 -53 103 52 208 155 155z
m1250 0 c102 -53 60 -215 -55 -215 -38 0 -83 26 -100 60 -53 103 52 208 155
155z m250 0 c102 -53 60 -215 -55 -215 -38 0 -83 26 -100 60 -53 103 52 208
155 155z m250 0 c102 -53 60 -215 -55 -215 -38 0 -83 26 -100 60 -53 103 52
208 155 155z m250 0 c102 -53 60 -215 -55 -215 -38 0 -83 26 -100 60 -53 103
52 208 155 155z m-2500 -250 c102 -53 60 -215 -55 -215 -38 0 -83 26 -100 60
-53 103 52 208 155 155z m250 0 c102 -53 60 -215 -55 -215 -38 0 -83 26 -100
60 -53 103 52 208 155 155z m250 0 c102 -53 60 -215 -55 -215 -38 0 -83 26
-100 60 -53 103 52 208 155 155z m250 0 c102 -53 60 -215 -55 -215 -38 0 -83
26 -100 60 -53 103 52 208 155 155z m250 0 c102 -53 60 -215 -55 -215 -38 0
-83 26 -100 60 -53 103 52 208 155 155z m250 0 c102 -53 60 -215 -55 -215 -38
0 -83 26 -100 60 -53 103 52 208 155 155z m250 0 c102 -53 60 -215 -55 -215
-38 0 -83 26 -100 60 -53 103 52 208 155 155z m250 0 c102 -53 60 -215 -55
-215 -38 0 -83 26 -100 60 -53 103 52 208 155 155z m250 0 c102 -53 60 -215
-55 -215 -38 0 -83 26 -100 60 -53 103 52 208 155 155z m250 0 c102 -53 60
-215 -55 -215 -38 0 -83 26 -100 60 -53 103 52 208 155 155z m-2000 -250 c102
-53 60 -215 -55 -215 -38 0 -83 26 -100 60 -53 103 52 208 155 155z m250 0
c102 -53 60 -215 -55 -215 -38 0 -83 26 -100 60 -53 103 52 208 155 155z m250
0 c102 -53 60 -215 -55 -215 -38 0 -83 26 -100 60 -53 103 52 208 155 155z
m250 0 c102 -53 60 -215 -55 -215 -38 0 -83 26 -100 60 -53 103 52 208 155
155z m250 0 c102 -53 60 -215 -55 -215 -38 0 -83 26 -100 60 -53 103 52 208
155 155z m250 0 c102 -53 60 -215 -55 -215 -38 0 -83 26 -100 60 -53 103 52
208 155 155z m250 0 c102 -53 60 -215 -55 -215 -38 0 -83 26 -100 60 -53 103
52 208 155 155z m250 0 c102 -53 60 -215 -55 -215 -38 0 -83 26 -100 60 -53
103 52 208 155 155z m-1500 -250 c102 -53 60 -215 -55 -215 -38 0 -83 26 -100
60 -53 103 52 208 155 155z m250 0 c102 -53 60 -215 -55 -215 -38 0 -83 26
-100 60 -53 103 52 208 155 155z m250 0 c102 -53 60 -215 -55 -215 -38 0 -83
26 -100 60 -53 103 52 208 155 155z m250 0 c102 -53 60 -215 -55 -215 -38 0
-83 26 -100 60 -53 103 52 208 155 155z m250 0 c102 -53 60 -215 -55 -215 -38
0 -83 26 -100 60 -53 103 52 208 155 155z m250 0 c102 -53 60 -215 -55 -215
-38 0 -83 26 -100 60 -53 103 52 208 155 155z"/>
</g>
</svg>
